<?xml version="1.0" encoding="UTF-8" standalone="no"?>
<!-- Generator: Adobe Illustrator 15.0.2, SVG Export Plug-In . SVG Version: 6.00 Build 0)  -->

<svg
   xmlns:dc="http://purl.org/dc/elements/1.1/"
   xmlns:cc="http://creativecommons.org/ns#"
   xmlns:rdf="http://www.w3.org/1999/02/22-rdf-syntax-ns#"
   xmlns:svg="http://www.w3.org/2000/svg"
   xmlns="http://www.w3.org/2000/svg"
   xmlns:sodipodi="http://sodipodi.sourceforge.net/DTD/sodipodi-0.dtd"
   xmlns:inkscape="http://www.inkscape.org/namespaces/inkscape"
   version="1.1"
   id="Layer_1"
   x="0px"
   y="0px"
   width="65.35714"
   height="53.433876"
   viewBox="0 0 65.357139 53.433875"
   enable-background="new 0 0 50.457 41.471"
   xml:space="preserve"
   inkscape:version="0.48.1 "
   sodipodi:docname="dx-d-sc--symbol-03.svg"><metadata
   id="metadata25"><rdf:RDF><cc:Work
       rdf:about=""><dc:format>image/svg+xml</dc:format><dc:type
         rdf:resource="http://purl.org/dc/dcmitype/StillImage" /><dc:title></dc:title></cc:Work></rdf:RDF></metadata><defs
   id="defs23" /><sodipodi:namedview
   pagecolor="#ffffff"
   bordercolor="#666666"
   borderopacity="1"
   objecttolerance="10"
   gridtolerance="10"
   guidetolerance="10"
   inkscape:pageopacity="0"
   inkscape:pageshadow="2"
   inkscape:window-width="840"
   inkscape:window-height="702"
   id="namedview21"
   showgrid="false"
   inkscape:document-units="mm"
   showguides="true"
   inkscape:guide-bbox="true"
   fit-margin-top="0"
   fit-margin-left="0"
   fit-margin-right="0"
   fit-margin-bottom="0"
   inkscape:zoom="2.8"
   inkscape:cx="-3.912219"
   inkscape:cy="32.026521"
   inkscape:window-x="202"
   inkscape:window-y="57"
   inkscape:window-maximized="0"
   inkscape:current-layer="Layer_1"><sodipodi:guide
     orientation="1,0"
     position="65.357143,59.505307"
     id="guide3002" /></sodipodi:namedview>
<polyline
   clip-rule="evenodd"
   points="49.017,37.686 26.815,1.716 26.759,1.602 26.7,1.487   26.586,1.429 26.529,1.315 26.416,1.257 26.3,1.143 26.185,1.085 26.126,1.028 25.899,0.914 25.725,0.914 25.61,0.856 25.382,0.856   25.209,0.799 24.98,0.799 24.865,0.856 24.636,0.856 24.464,0.914 24.349,0.914 24.292,0.97 24.177,1.028 24.005,1.085   23.833,1.257 23.718,1.315 23.661,1.429 23.488,1.602 23.432,1.716 1.229,37.628 1.172,37.858 1.058,38.087 1,38.318 1,38.719   1.058,38.89 1.058,39.064 1.172,39.235 1.229,39.409 1.459,39.637 1.573,39.81 1.688,39.923 1.86,40.039 1.975,40.154 2.319,40.267   2.549,40.325 2.721,40.325 2.893,40.382 47.468,40.382 47.64,40.325 47.868,40.325 48.042,40.21 48.214,40.154 48.329,40.039   48.501,39.981 48.673,39.81 48.788,39.693 48.903,39.58 49.017,39.409 49.073,39.235 49.132,39.064 49.188,38.89 49.188,38.318   49.132,38.087 49.073,37.858 49.017,37.686 "
   id="polyline3"
   style="fill:#fadf00;fill-rule:evenodd"
   transform="matrix(1.2364865,0,0,1.2364865,2.2080112,0.83073952)" />
<polyline
   stroke-miterlimit="10"
   points="  49.017,37.686 26.815,1.716 26.759,1.602 26.7,1.487 26.586,1.429 26.529,1.315 26.416,1.257 26.3,1.143 26.185,1.085 26.126,1.028   25.899,0.914 25.725,0.914 25.61,0.856 25.382,0.856 25.209,0.799 24.98,0.799 24.865,0.856 24.636,0.856 24.464,0.914   24.349,0.914 24.292,0.97 24.177,1.028 24.005,1.085 23.833,1.257 23.718,1.315 23.661,1.429 23.488,1.602 23.432,1.716   1.229,37.628 1.172,37.858 1.058,38.087 1,38.318 1,38.719 1.058,38.89 1.058,39.064 1.172,39.235 1.229,39.409 1.459,39.637   1.573,39.81 1.688,39.923 1.86,40.039 1.975,40.154 2.319,40.267 2.549,40.325 2.721,40.325 2.893,40.382 47.468,40.382   47.64,40.325 47.868,40.325 48.042,40.21 48.214,40.154 48.329,40.039 48.501,39.981 48.673,39.81 48.788,39.693 48.903,39.58   49.017,39.409 49.073,39.235 49.132,39.064 49.188,38.89 49.188,38.318 49.132,38.087 49.073,37.858 49.017,37.686 "
   id="polyline5"
   style="fill:none;stroke:#394547;stroke-width:0.0574;stroke-linecap:round;stroke-linejoin:round;stroke-miterlimit:10"
   transform="matrix(1.2364865,0,0,1.2364865,2.2080112,0.83073952)" />
<polyline
   clip-rule="evenodd"
   points="47.698,37.858 26.07,2.921 25.84,2.577 25.725,2.462   25.668,2.348 25.497,2.29 25.382,2.233 25.267,2.175 24.922,2.175 24.579,2.348 24.349,2.577 24.12,2.921 2.491,37.858 2.377,38.03   2.319,38.145 2.262,38.318 2.262,38.776 2.377,39.006 2.491,39.121 2.606,39.178 2.836,39.235 3.065,39.292 46.952,39.292   47.296,39.235 47.468,39.121 47.64,39.064 47.755,38.949 47.868,38.776 47.868,38.663 47.927,38.489 47.927,38.318 47.868,38.145   47.755,38.03 47.698,37.858 "
   id="polyline7"
   style="fill:#252d2b;fill-rule:evenodd"
   transform="matrix(1.2364865,0,0,1.2364865,2.2080112,0.83073952)" />
<polyline
   clip-rule="evenodd"
   points="44.083,36.539 6.105,36.539 25.095,6.593 44.083,36.539   "
   id="polyline9"
   style="fill:#fadf00;fill-rule:evenodd"
   transform="matrix(1.2364865,0,0,1.2364865,2.2080112,0.83073952)" />
<polyline
   clip-rule="evenodd"
   points="25.267,26.73 30.202,34.761 29.913,34.875 29.626,35.047   28.767,35.39 28.479,35.507 28.192,35.563 27.849,35.678 27.505,35.736 27.161,35.85 26.931,35.909 26.586,35.909 26.242,35.965   24.292,35.965 23.947,35.909 23.661,35.909 23.374,35.85 23.03,35.736 22.686,35.678 22.398,35.621 22.112,35.507 21.824,35.39   21.481,35.334 21.194,35.163 20.906,35.047 20.563,34.875 20.276,34.761 25.267,26.73 "
   id="polyline11"
   style="fill:#252d2b;fill-rule:evenodd"
   transform="matrix(1.2364865,0,0,1.2364865,2.2080112,0.83073952)" />
<polyline
   clip-rule="evenodd"
   points="25.267,26.73 15.342,26.73 15.399,26.155 15.457,25.524   15.571,24.951 15.744,24.376 15.916,23.746 16.087,23.171 16.432,22.657 16.719,22.14 17.408,21.106 17.809,20.648 18.268,20.188   18.727,19.788 19.244,19.386 19.76,19.042 20.333,18.697 25.267,26.73 "
   id="polyline13"
   style="fill:#252d2b;fill-rule:evenodd"
   transform="matrix(1.2364865,0,0,1.2364865,2.2080112,0.83073952)" />
<polyline
   clip-rule="evenodd"
   points="25.267,26.73 30.202,18.697 30.718,19.042 31.292,19.386   31.751,19.788 32.208,20.188 32.726,20.59 33.126,21.106 33.472,21.566 33.813,22.082 34.101,22.599 34.39,23.171 34.618,23.746   34.79,24.32 34.962,24.893 35.021,25.524 35.136,26.098 35.136,26.73 25.267,26.73 "
   id="polyline15"
   style="fill:#252d2b;fill-rule:evenodd"
   transform="matrix(1.2364865,0,0,1.2364865,2.2080112,0.83073952)" />
<polyline
   clip-rule="evenodd"
   points="25.267,24.492 25.497,24.549 25.725,24.549   25.955,24.605 26.126,24.664 26.357,24.778 26.529,24.893 26.759,25.007 26.872,25.179 26.987,25.351 27.161,25.524 27.274,25.698   27.39,25.869 27.446,26.098 27.505,26.27 27.562,26.5 27.562,26.958 27.505,27.188 27.446,27.36 27.39,27.589 27.274,27.761   27.161,27.934 26.987,28.106 26.872,28.278 26.759,28.45 26.529,28.506 26.357,28.679 26.126,28.738 25.955,28.851 25.725,28.909   24.808,28.909 24.579,28.851 24.349,28.738 24.12,28.679 23.947,28.506 23.775,28.45 23.603,28.278 23.432,28.106 23.087,27.589   23.03,27.36 22.915,27.188 22.915,26.27 23.03,26.098 23.087,25.869 23.316,25.524 23.432,25.351 23.775,25.007 23.947,24.893   24.12,24.778 24.349,24.664 24.579,24.605 24.808,24.549 24.98,24.549 25.267,24.492 "
   id="polyline17"
   style="fill:#fadf00;fill-rule:evenodd"
   transform="matrix(1.2364865,0,0,1.2364865,2.2080112,0.83073952)" />
<polyline
   clip-rule="evenodd"
   points="25.267,24.893 25.438,24.893 25.668,24.951 25.84,24.951   26.07,25.007 26.242,25.066 26.357,25.179 26.529,25.296 26.644,25.409 26.815,25.581 26.931,25.698 27.044,25.869 27.103,25.983   27.161,26.212 27.218,26.384 27.274,26.556 27.274,26.901 27.218,27.073 27.161,27.246 27.103,27.475 27.044,27.589 26.931,27.761   26.815,27.934 26.644,28.048 26.529,28.164 26.357,28.278 26.242,28.393 26.07,28.45 25.84,28.506 25.668,28.565 24.865,28.565   24.636,28.506 24.464,28.45 24.292,28.393 24.177,28.278 23.947,28.164 23.718,27.934 23.488,27.589 23.432,27.475 23.374,27.246   23.259,27.073 23.259,26.384 23.374,26.212 23.432,25.983 23.488,25.869 23.603,25.698 23.718,25.581 23.833,25.409 23.947,25.296   24.177,25.179 24.292,25.066 24.464,25.007 24.636,24.951 24.865,24.951 25.037,24.893 25.267,24.893 "
   id="polyline19"
   style="fill:#252d2b;fill-rule:evenodd"
   transform="matrix(1.2364865,0,0,1.2364865,2.2080112,0.83073952)" />
</svg>